<?xml version="1.0" standalone="no"?>
<!DOCTYPE svg PUBLIC "-//W3C//DTD SVG 20010904//EN"
 "http://www.w3.org/TR/2001/REC-SVG-20010904/DTD/svg10.dtd">
<svg version="1.0" xmlns="http://www.w3.org/2000/svg"
 width="512.000000pt" height="512.000000pt" viewBox="0 0 512.000000 512.000000"
 preserveAspectRatio="xMidYMid meet">
<metadata>
Created by potrace 1.16, written by Peter Selinger 2001-2019
</metadata>
<g transform="translate(0.000000,512.000000) scale(0.100000,-0.100000)"
fill="#000000" stroke="none">
<path d="M0 2560 l0 -2560 2560 0 2560 0 0 2560 0 2560 -2560 0 -2560 0 0
-2560z m2231 1225 c40 -21 69 -71 69 -120 0 -132 -166 -184 -249 -79 -26 33
-29 118 -5 153 40 56 124 77 185 46z m-1333 -372 c107 -26 181 -102 182 -185
l0 -28 -125 0 c-104 0 -125 2 -125 15 0 24 -38 55 -68 55 -41 0 -72 -26 -72
-60 0 -39 21 -51 155 -90 122 -35 164 -57 200 -105 35 -45 51 -127 36 -181
-36 -134 -164 -202 -356 -191 -118 6 -194 35 -255 96 -44 45 -79 119 -65 141
4 6 57 10 120 10 l114 0 16 -30 c37 -71 165 -64 165 8 0 15 -4 32 -8 39 -11
17 -64 37 -152 58 -148 35 -211 86 -232 187 -43 207 184 333 470 261z m534
-155 l3 -152 114 152 113 152 140 0 c111 0 138 -3 131 -12 -5 -7 -69 -86 -141
-175 -73 -90 -132 -165 -132 -168 0 -2 65 -92 145 -200 l145 -195 -148 0 -147
0 -112 162 -113 161 0 -161 0 -162 -120 0 -120 0 0 375 0 375 120 0 119 0 3
-152z m848 -223 l0 -375 -120 0 -120 0 0 375 0 375 120 0 120 0 0 -375z m380
110 l0 -265 170 0 170 0 0 -110 0 -110 -290 0 -290 0 0 375 0 375 120 0 120 0
0 -265z m710 0 l0 -265 170 0 170 0 0 -110 0 -110 -290 0 -290 0 0 375 0 375
120 0 120 0 0 -265z m-2516 -696 c122 -21 214 -96 223 -183 l6 -46 -127 0
c-111 0 -126 2 -126 17 0 28 -31 53 -67 53 -53 0 -73 -15 -73 -55 0 -43 13
-50 169 -96 103 -29 120 -38 162 -78 78 -76 89 -180 29 -275 -109 -171 -512
-161 -613 16 -14 24 -28 58 -32 76 l-7 32 126 0 c98 0 126 -3 126 -13 0 -19
40 -54 70 -62 28 -7 80 9 92 28 4 7 8 24 8 39 0 35 -25 52 -110 73 -144 36
-187 54 -228 100 -128 138 -44 334 159 374 63 13 143 13 213 0z m1669 -21 c26
-11 60 -36 77 -54 l29 -33 3 47 3 47 118 3 117 3 0 -381 0 -380 -120 0 -120 0
0 47 0 47 -32 -32 c-56 -53 -121 -77 -213 -77 -168 1 -284 96 -330 270 -37
145 -3 308 86 410 91 103 252 138 382 83z m1527 22 c85 -14 179 -60 225 -111
70 -78 105 -193 90 -299 l-7 -50 -274 0 -274 0 0 -22 c0 -33 35 -85 67 -102
72 -37 184 -27 228 20 21 23 29 24 134 24 126 0 127 -1 90 -76 -93 -193 -467
-232 -648 -69 -22 20 -55 67 -73 103 -28 57 -33 78 -36 162 -11 261 129 413
393 429 11 0 49 -4 85 -9z m-546 -6 c13 -5 16 -25 16 -115 l0 -109 -67 0 c-90
0 -137 -26 -172 -95 -25 -47 -26 -58 -29 -247 l-4 -198 -119 0 -119 0 0 380 0
380 120 0 120 0 0 -72 c1 -70 1 -72 14 -43 38 84 166 147 240 119z m-2076
-141 l3 -133 139 0 140 0 0 135 0 136 118 -3 117 -3 3 -377 2 -378 -120 0
-120 0 0 135 0 135 -140 0 -139 0 -3 -132 -3 -133 -117 -3 -118 -3 0 381 0
381 118 -3 117 -3 3 -132z m3223 -378 c64 -34 89 -128 49 -192 -49 -81 -168
-84 -229 -7 -26 33 -29 118 -5 153 40 56 124 77 185 46z"/>
<path d="M2375 2231 c-62 -38 -86 -85 -87 -167 -1 -72 17 -117 62 -158 65 -59
175 -58 232 1 85 89 74 257 -21 320 -44 30 -141 32 -186 4z"/>
<path d="M3883 2274 c-38 -19 -73 -70 -73 -108 l0 -26 160 0 c156 0 160 1 160
21 0 36 -32 90 -64 110 -39 24 -137 25 -183 3z"/>
</g>
</svg>
